<svg width="179" height="256" viewBox="0 0 179 256" fill="none" xmlns="http://www.w3.org/2000/svg">
<path fill-rule="evenodd" clip-rule="evenodd" d="M118.713 38.241C122.203 34.1445 124.565 29.1241 124.17 23.4986C123.033 7.28992 100.47 10.8556 96.0808 19.0363C91.6919 27.2171 92.2134 47.9682 97.8857 49.4303C100.148 50.0134 104.967 48.5851 109.871 45.6288L106.793 67.4083H124.97L118.713 38.241Z" fill="#B28B67"/>
<path fill-rule="evenodd" clip-rule="evenodd" d="M132.095 18.1031C132.682 17.5212 133.002 16.6908 133.279 15.9022C133.567 15.0831 133.847 14.2555 134.038 13.4029C134.419 11.6994 134.423 9.74024 133.208 8.41742C132.233 7.35666 130.771 6.88088 129.421 6.77748C128.522 6.70852 127.598 6.83445 126.736 7.11783C125.881 7.39894 125.144 7.9592 124.315 8.30694C124.283 6.47112 123.968 4.55021 123.037 2.98269C122.141 1.47448 120.712 0.628126 119.085 0.404216C117.414 0.174427 115.765 0.565271 114.27 1.37386C113.896 1.57637 113.525 1.78852 113.17 2.02864C112.873 2.22971 112.564 2.47186 112.215 2.55363C111.826 2.6449 111.634 2.42039 111.381 2.13679C111.085 1.80428 110.751 1.51141 110.398 1.25177C108.836 0.10396 106.787 -0.367977 104.978 0.320033C104.145 0.637019 103.334 1.17535 102.769 1.91717C102.265 2.57843 101.905 3.62736 101.209 4.08807C100.914 4.28364 100.706 4.02454 100.437 3.83303C100.033 3.54529 99.6479 3.22777 99.2392 2.94787C98.6652 2.55461 98.0437 2.26046 97.3782 2.10649C96.4039 1.88107 95.0575 1.9339 94.7789 3.20999C94.6743 3.68931 94.7545 4.20195 94.7883 4.68489C94.8347 5.34802 94.8831 6.01094 94.9406 6.6731C94.9844 7.17586 95.0396 7.66144 95.1345 8.15515C95.1851 8.41833 95.3435 8.90896 95.2306 9.17251C95.0896 9.50193 94.4387 9.31465 94.1606 9.3261C93.6114 9.34879 93.0598 9.44511 92.552 9.67979C92.1584 9.86172 91.7445 10.1293 91.5784 10.5804C91.4763 10.8575 91.5032 11.1422 91.5514 11.4273C91.6093 11.7694 91.5431 11.9509 91.4999 12.2962C90.7622 11.9329 88.2059 11.1258 87.8842 12.4479C87.7771 12.8881 88.021 13.3855 88.2071 13.7567C88.5334 14.4079 88.9612 15.0031 89.3986 15.5706C90.3109 16.7547 91.4001 17.776 92.572 18.6494C91.199 19.2598 90.8406 21.0602 92.0293 22.1328C92.5542 22.6064 93.2599 22.7119 93.9219 22.6816C94.1643 22.6705 94.5136 22.5773 94.7042 22.6196C94.8069 22.6422 94.9167 22.7292 95.0589 22.7389C95.9932 22.8029 97.048 22.5778 97.9613 22.3705C99.5888 22.001 101.13 21.23 102.388 20.0556C102.711 19.7544 102.977 19.581 103.412 19.5854C103.792 19.5893 104.166 19.6936 104.546 19.7033C105.553 19.729 106.46 19.237 107.395 18.9095C107.452 20.172 107.811 21.5624 108.328 22.6982C108.749 23.6243 109.628 23.7589 110.492 23.8402C113.256 24.1002 116.029 23.81 118.796 23.8139C116.117 24.4193 113.35 24.6688 110.695 25.3812C109.495 25.7032 110.411 26.5119 110.924 27.0726C111.769 27.9958 112.398 29.1397 112.833 30.3448C114.143 28.6369 116.459 27.5115 118.511 28.0362C120.778 28.6158 122.375 31.6816 120.925 33.8857C120.083 35.1652 118.563 35.6591 117.299 36.2088C118.285 37.2345 118.524 38.7494 119.118 40.0255C119.411 40.6548 119.822 41.3664 120.477 41.5857C120.719 41.6668 121.003 41.6738 121.194 41.8713C121.431 42.1159 121.487 42.3893 121.79 42.5995C122.997 43.4384 124.882 43.3738 125.951 42.2789C126.918 41.2888 126.667 39.722 125.859 38.7181C127.145 38.1821 129.488 37.4927 128.976 35.4894C131.763 35.3044 138.528 30.7853 134.788 27.4831C136.841 26.3232 138.726 23.4884 137.408 20.9895C136.393 19.0653 134.032 18.2051 132.095 18.1031Z" fill="#191847"/>
<path fill-rule="evenodd" clip-rule="evenodd" d="M157.824 162.083H99.312L91.645 256H178.746L157.824 162.083Z" fill="#C5CFD6"/>
<path fill-rule="evenodd" clip-rule="evenodd" d="M157.824 162.083H139.828L129.058 256H178.746L157.824 162.083Z" fill="black" fill-opacity="0.1"/>
<path fill-rule="evenodd" clip-rule="evenodd" d="M32.6035 145.993C26.3649 142.247 15.8982 147.06 15.9054 152.417C15.9269 168.447 30.5559 243.996 31.3197 248.772C32.0835 253.548 40.2658 254.809 40.7423 248.788C41.5004 239.206 42.909 206.037 41.4997 190.684C40.9179 184.347 40.2914 178.311 39.6746 172.927C47.351 186.79 59.223 206.637 75.2905 232.471L84.0131 228.485C77.1635 205.918 71.5469 189.986 67.1634 180.689C59.6577 164.771 52.6199 151.14 49.658 146.338C44.9988 138.785 36.8887 141.42 32.6035 145.993Z" fill="#B28B67"/>
<path fill-rule="evenodd" clip-rule="evenodd" d="M83.3896 215.953L53.4515 145.032C46.2795 133.495 26.171 147.379 28.6168 154.071C34.1696 169.262 62.4097 218.444 64.0641 222.97L83.3896 215.953Z" fill="#1F28CF"/>
<path fill-rule="evenodd" clip-rule="evenodd" d="M85.0522 224.013C86.917 225.548 88.1301 226.802 88.6916 227.775C89.3745 228.958 90.174 230.797 91.09 233.294C89.7179 234.086 77.3861 241.206 54.0947 254.653C51.2984 252.03 50.8627 249.994 52.7877 248.545C54.7126 247.095 56.3012 245.873 57.5533 244.878L70.3226 227.285C70.5683 226.946 71.042 226.871 71.3805 227.117C71.3863 227.121 71.392 227.125 71.3977 227.129L74.0509 229.172C76.4849 228.96 78.3014 228.508 79.5002 227.816C80.4742 227.253 81.5922 226.083 82.8542 224.306C83.3385 223.623 84.2841 223.463 84.9663 223.947C84.9957 223.968 85.0244 223.99 85.0522 224.013Z" fill="#E4E4E4"/>
<path fill-rule="evenodd" clip-rule="evenodd" d="M42.6581 244.943C43.5054 247.205 43.9291 248.898 43.9291 250.021C43.9291 251.387 43.7015 253.38 43.2465 256C41.6621 256 27.4225 256 0.527946 256C-0.582157 252.33 0.0586586 250.349 2.45039 250.056C4.84213 249.763 6.82898 249.499 8.41096 249.263L28.2661 240.412C28.6482 240.242 29.096 240.413 29.2663 240.795C29.2692 240.802 29.272 240.808 29.2747 240.815L30.551 243.911C32.7651 244.944 34.5643 245.461 35.9486 245.461C37.0733 245.461 38.6266 245.006 40.6083 244.098C41.3688 243.749 42.2679 244.083 42.6165 244.844C42.6316 244.876 42.6454 244.91 42.6581 244.943Z" fill="#E4E4E4"/>
<path fill-rule="evenodd" clip-rule="evenodd" d="M13.8072 157.866C13.8072 177.988 23.3631 224.924 23.3691 229.355L43.9291 229.371C40.9198 187.49 39.8527 166.324 40.7279 165.873C42.0406 165.196 94.5415 171.115 110.287 171.115C132.993 171.115 142.386 156.797 143.148 130.272H98.1691C89.0109 131.252 41.2412 140.887 23.5005 144.2C15.9054 145.618 13.8072 152.323 13.8072 157.866Z" fill="#2B44FF"/>
<path fill-rule="evenodd" clip-rule="evenodd" d="M91.1617 83.0866L64.8727 68.6881C60.501 63.4967 56.1936 59.4649 51.9506 56.5925C50.6541 56.0513 48.3868 55.7236 50.5072 59.4871C52.6275 63.2505 54.6885 67.3044 53.6083 68.4638C52.5281 69.6232 49.8344 68.0035 48.5457 69.9299C47.6866 71.2142 52.2885 73.243 62.3514 76.0163L81.4536 93.5064L91.1617 83.0866ZM49.9882 95.2349L38.4405 88.8912C36.8202 82.7258 34.8834 79.6238 32.6299 79.5851C30.8988 78.7796 33.9135 86.5702 30.6319 85.8946C27.3502 85.219 19.3407 79.2621 17.9606 80.4716C15.9188 82.2609 17.7394 87.7553 19.8844 90.4885C23.8935 95.5968 27.2129 97.3437 35.4171 99.6312C39.7067 100.827 44.3446 103.225 49.3306 106.823L49.9882 95.2349Z" fill="#997659"/>
<path fill-rule="evenodd" clip-rule="evenodd" d="M103.965 79.8791C94.7567 79.7818 82.4776 77.837 69.3758 69.5205L64.2304 80.995C73.2678 89.9638 85.9751 97.3328 97.0862 97.0207C105.842 96.7748 110.317 86.1835 103.965 79.8791Z" fill="#2026A2"/>
<path fill-rule="evenodd" clip-rule="evenodd" d="M91.5661 98.2807C81.7905 100.719 65.3975 97.8436 42.387 89.6556C36.6795 101.463 34.041 109.882 34.4717 114.91C54.2113 125.221 71.1298 129.818 85.0684 130.122C84.6254 138.393 85.6321 146.262 89.0139 153.453C95.9662 168.236 136.676 154.545 150.364 157.24C158.936 129.402 142.362 118.089 142.349 100.277C142.334 80.7704 126.671 50.7456 124.367 50.7456H103.352C102.192 65.6428 96.3557 82.0609 91.5661 98.2807Z" fill="#1F28CF"/>
</svg>
